PathFileType	4	(X/Y/Z)	C:/Users/beibeiliu/ov580/test_trc/User3\out3_training_dense_right.trc
DataRate	CameraRate	NumFrames	NumMarkers	Units	OrigDataRate	OrigDataStartFrame	OrigNumFrames
120	120	8	19	mm	120	376	500
Frame#	Time	ThumbCMC			ThumbMCP			ThumbIP			ThumbTip			IndexMCP			IndexPIP			IndexTip			MiddleMCP			MiddlePIP			MiddleTip			RingMCP			RingPIP			RingTip			PinkyMCP			PinkyPIP			PinkyTip			BackHand1			BackHand2			BackHand3	
		X0	Y0	Z0	X1	Y1	Z1	X2	Y2	Z2	X3	Y3	Z3	X4	Y4	Z4	X5	Y5	Z5	X6	Y6	Z6	X7	Y7	Z7	X8	Y8	Z8	X9	Y9	Z9	X10	Y10	Z10	X11	Y11	Z11	X12	Y12	Z12	X13	Y13	Z13	X14	Y14	Z14	X15	Y15	Z15	X16	Y16	Z16	X17	Y17	Z17	X18	Y18	Z18	
375	3.125	163.079	66.6815	62.9232	157.832	80.0293	32.9131	152.675	84.245	0.515566	145.335	74.3956	-21.6289	174.075	47.4621	-12.2015	150.003	53.4831	-35.507	122.859	56.3382	-11.7483	160.511	29.0081	-16.818	130.169	36.3173	-22.0391	122.186	37.6774	18.8145	153.463	14.055	-7.06887	122.457	18.2664	-2.95154	127.345	29.687	29.4988	152.008	-2.82615	5.29086	124.771	3.31846	0.565246	116.94	15.9867	26.9212	186.225	11.3654	43.2124	184.24	11.4582	73.6264	188.033	45.1775	56.2992	
376	3.13333	164.106	67.0585	59.7445	156.079	81.63	35.3933	151.77	80.8535	1.18405	142.984	72.0694	-21.5267	175.528	48.388	-16.4913	150.483	52.5796	-37.6484	125.403	59.5929	-23.3106	161.427	28.0288	-16.4404	130.154	37.0355	-21.4757	123.395	42.7123	18.4114	152.658	15.4903	-9.70917	123.836	18.8279	-6.56248	123.533	29.7695	23.6319	149.53	-1.37578	2.03052	122.262	3.49549	1.04366	118.072	17.0484	28.5562	182.933	7.98042	45.0002	182.643	9.58776	76.0731	189.948	39.4419	54.382	
377	3.14167	162.502	66.7359	63.3828	158.028	80.3541	32.4764	151.326	79.7264	4.49399	142.319	71.4749	-19.6714	176.867	49.2702	-14.6956	153.807	50.6878	-38.6737	126.402	55.51	-29.0698	162.359	31.7545	-18.8753	128.947	36.3354	-21.3129	122.887	42.5513	15.1	154.475	11.0387	-6.18209	121.471	20.9799	-4.53373	124.527	29.609	24.4986	149.837	-3.27612	4.46847	122.264	7.29676	0.821775	118.093	20.1938	23.8437	182.732	7.71855	42.0391	182.293	5.72965	71.6585	189.6	41.2648	58.6358	
378	3.15	162.102	64.5085	64.0969	156.211	83.4799	35.3448	150.819	79.3893	2.51924	142.544	70.7277	-14.8447	178.157	50.5412	-11.3598	154.39	51.9289	-37.5325	123.885	61.4137	-25.6798	162.878	33.9392	-17.441	130.716	36.0367	-22.7718	122.296	41.5262	15.0317	154.597	15.7606	-6.41276	121.266	20.0092	-3.26534	126.344	31.6537	26.811	148.102	-2.57296	2.46993	123.694	8.84	0.474288	120.367	18.0914	29.6368	183.169	8.96262	41.2939	183.498	9.83541	75.987	188.284	39.5144	55.4655	
379	3.15833	163.108	69.4188	60.5394	157.305	76.8969	33.4309	150.789	80.5481	6.84832	143.992	73.5715	-15.2348	176.108	49.7667	-11.8128	153.67	55.7237	-35.291	123.091	59.9359	-20.3295	159.343	30.9364	-17.8431	128.769	37.7699	-18.6822	122.995	38.6928	20.4584	151.274	18.1582	-7.1616	123.03	22.7995	-3.73668	125.468	27.3338	30.0041	147.97	-4.53181	3.93874	122.042	9.67717	3.4861	121.094	20.6179	32.0773	184.88	6.32332	42.9415	183.909	5.79538	70.2026	186.278	40.0392	59.4314	
380	3.16667	161.436	69.4912	65.527	157.833	76.5624	32.7859	153.4	83.6138	5.55901	147.446	77.7833	-18.4647	173.835	49.7287	-16.309	149.397	57.1951	-33.3185	123.74	58.2479	-8.57085	158.284	33.1402	-14.5431	125.825	38.7205	-13.0074	127.924	42.4145	28.5981	149.197	16.1445	-7.27449	121.827	21.6105	1.3796	126.758	32.561	32.0934	151.283	-0.0397512	4.9052	121.414	10.589	6.34546	122.248	17.7302	32.1028	184.805	12.4525	41.9993	183.171	8.63688	70.3715	190.114	43.9056	55.5133	
381	3.175	163.726	67.8677	63.3231	160.775	76.7969	30.4039	155.593	83.8558	3.47356	151.601	79.2196	-22.4843	173.794	52.8899	-12.8993	142.347	56.5964	-27.1414	128.775	63.652	2.7485	159.443	34.3116	-14.3398	125.856	40.4353	-8.64527	129.845	42.077	27.9437	149.504	19.315	-6.00703	122.119	21.9018	4.89527	132.249	33.1329	36.0044	149.052	1.29796	2.66568	125.205	11.6765	4.85333	124.77	18.0391	34.0208	188.524	8.50782	40.0418	185.646	7.60615	71.172	191.871	43.5466	56.673	
382	3.18333	167.57	69.8518	58.0281	162.914	78.4318	30.5893	160.176	82.2074	-0.012595	154.586	77.8877	-21.4371	173.118	52.3885	-14.6155	141.758	57.7778	-23.7797	132.744	63.064	6.7255	163.096	35.0002	-12.7345	130.66	43.293	-11.3515	131.404	40.4971	29.1264	152.826	14.4815	-4.2055	123.564	22.9457	6.55795	134.966	28.913	38.3144	152.958	-1.24272	4.7033	125.378	9.90479	5.42783	129.746	21.5571	32.4032	187.299	6.43951	39.886	185.056	6.21412	74.583	193.329	43.581	56.9969	
